<svg width="298" height="237" viewBox="0 0 298 237" fill="none" xmlns="http://www.w3.org/2000/svg">
<path d="M61.0634 -105.136C58.8208 -109.536 55.3094 -113.163 50.9834 -115.546C32.1834 -125.606 8.71345 -102.546 3.25345 -86.0459C-10.2766 -45.1659 20.8334 -6.75587 51.6034 15.7441C96.8934 48.8741 140.153 76.9341 154.293 135.184C161.833 166.274 138.613 227.414 184.223 235.534C281.513 252.864 362.903 82.2441 268.123 31.1441C239.973 15.9641 209.603 5.72412 179.283 -4.15588C151.553 -13.1559 118.843 -20.4359 94.1734 -36.4459C83.9834 -43.0159 74.9834 -52.5459 70.9134 -64.1459C66.2934 -77.5459 67.9834 -92.3459 61.0634 -105.136Z" fill="#6257E2"/>
</svg>
