<svg width="188" height="273" viewBox="0 0 188 273" fill="none" xmlns="http://www.w3.org/2000/svg">
<path d="M160.112 272.851H6.62156C5.70286 272.865 4.7915 272.685 3.94725 272.322C3.10299 271.96 2.3449 271.423 1.72267 270.747C1.10043 270.071 0.628118 269.271 0.33668 268.4C0.0452425 267.528 -0.0587364 266.605 0.0315654 265.691L19.3816 17.4507C19.5565 15.5161 20.4408 13.7146 21.8641 12.3928C23.2875 11.071 25.1494 10.3223 27.0916 10.2907H180.572C181.491 10.2765 182.402 10.4566 183.247 10.819C184.092 11.1815 184.85 11.7182 185.473 12.3941C186.096 13.0699 186.57 13.8697 186.862 14.7411C187.155 15.6125 187.26 16.5358 187.172 17.4507L167.822 265.691C167.644 267.624 166.76 269.425 165.337 270.746C163.914 272.067 162.053 272.817 160.112 272.851Z" fill="#2E353A"/>
<path opacity="0.2" d="M160.112 272.851H6.62156C5.70286 272.865 4.7915 272.685 3.94725 272.322C3.10299 271.96 2.3449 271.423 1.72267 270.747C1.10043 270.071 0.628118 269.271 0.33668 268.4C0.0452425 267.528 -0.0587364 266.605 0.0315654 265.691L19.3816 17.4507C19.5565 15.5161 20.4408 13.7146 21.8641 12.3928C23.2875 11.071 25.1494 10.3223 27.0916 10.2907H180.572C181.491 10.2765 182.402 10.4566 183.247 10.819C184.092 11.1815 184.85 11.7182 185.473 12.3941C186.096 13.0699 186.57 13.8697 186.862 14.7411C187.155 15.6125 187.26 16.5358 187.172 17.4507L167.822 265.691C167.644 267.624 166.76 269.425 165.337 270.746C163.914 272.067 162.053 272.817 160.112 272.851Z" fill="white"/>
<path d="M139.322 26.5207H65.8216C65.5002 26.5264 65.1813 26.4641 64.8856 26.3379C64.59 26.2117 64.3244 26.0244 64.1063 25.7884C63.8882 25.5523 63.7224 25.2727 63.6199 24.9681C63.5174 24.6635 63.4805 24.3406 63.5116 24.0207L64.6416 9.51068C64.7031 8.83307 65.0127 8.20207 65.5111 7.73881C66.0094 7.27555 66.6613 7.01268 67.3416 7.00068H140.842C141.163 6.99621 141.482 7.05979 141.777 7.18722C142.072 7.31466 142.337 7.50308 142.554 7.74011C142.771 7.97714 142.936 8.25743 143.037 8.56257C143.138 8.86772 143.174 9.19083 143.142 9.51068L142.012 23.9807C141.959 24.6628 141.655 25.301 141.158 25.7707C140.66 26.2403 140.006 26.5077 139.322 26.5207V26.5207Z" fill="#6257E2"/>
<path opacity="0.2" d="M139.322 26.5207H65.8216C65.5002 26.5264 65.1813 26.4641 64.8856 26.3379C64.59 26.2117 64.3244 26.0244 64.1063 25.7884C63.8882 25.5523 63.7224 25.2727 63.6199 24.9681C63.5174 24.6635 63.4805 24.3406 63.5116 24.0207L64.6416 9.51068C64.7031 8.83307 65.0127 8.20207 65.5111 7.73881C66.0094 7.27555 66.6613 7.01268 67.3416 7.00068H140.842C141.163 6.99621 141.482 7.05979 141.777 7.18722C142.072 7.31466 142.337 7.50308 142.554 7.74011C142.771 7.97714 142.936 8.25743 143.037 8.56257C143.138 8.86772 143.174 9.19083 143.142 9.51068L142.012 23.9807C141.959 24.6628 141.655 25.301 141.158 25.7707C140.66 26.2403 140.006 26.5077 139.322 26.5207V26.5207Z" fill="black"/>
<path d="M109.452 11.5107H97.9516L98.4016 5.75067C98.542 4.19736 99.2519 2.75084 100.395 1.68936C101.537 0.627882 103.032 0.0264154 104.592 0.000670954V0.000670954C105.33 -0.0111386 106.063 0.133066 106.742 0.423858C107.421 0.71465 108.031 1.14548 108.532 1.68819C109.034 2.23091 109.415 2.87328 109.651 3.57332C109.886 4.27336 109.972 5.01531 109.902 5.75067L109.452 11.5107Z" fill="#6257E2"/>
<path opacity="0.4" d="M109.452 11.5107H97.9516L98.4016 5.75067C98.542 4.19736 99.2519 2.75084 100.395 1.68936C101.537 0.627882 103.032 0.0264154 104.592 0.000670954V0.000670954C105.33 -0.0111386 106.063 0.133066 106.742 0.423858C107.421 0.71465 108.031 1.14548 108.532 1.68819C109.034 2.23091 109.415 2.87328 109.651 3.57332C109.886 4.27336 109.972 5.01531 109.902 5.75067L109.452 11.5107Z" fill="white"/>
<path d="M158.042 262.481H10.3016L29.1616 20.6507H176.892L158.042 262.481Z" fill="white"/>
<path d="M125.652 33.3107H78.4516C77.6949 33.3213 76.9445 33.1721 76.2494 32.8729C75.5543 32.5738 74.9302 32.1313 74.4177 31.5745C73.9052 31.0177 73.516 30.359 73.2754 29.6415C73.0349 28.924 72.9484 28.1639 73.0216 27.4107L73.6216 19.7307C73.7668 18.1375 74.4953 16.6541 75.6672 15.5652C76.8392 14.4763 78.372 13.8586 79.9716 13.8307H127.182C127.939 13.8203 128.689 13.9694 129.385 14.2685C130.08 14.5676 130.705 15.0098 131.218 15.5665C131.732 16.1231 132.122 16.7816 132.364 17.4991C132.605 18.2166 132.693 18.977 132.622 19.7307L132.022 27.4107C131.872 29.0056 131.139 30.4892 129.964 31.5777C128.789 32.6663 127.253 33.2833 125.652 33.3107V33.3107ZM79.7916 15.8407C78.7365 15.8585 77.7251 16.2655 76.9518 16.9835C76.1784 17.7014 75.6976 18.6798 75.6016 19.7307L75.0016 27.4107C74.9522 27.908 75.0085 28.4101 75.1666 28.8841C75.3247 29.3582 75.5811 29.7935 75.919 30.1616C76.2569 30.5298 76.6688 30.8224 77.1276 31.0204C77.5864 31.2184 78.0819 31.3173 78.5816 31.3107H125.802C126.859 31.2929 127.873 30.8848 128.648 30.165C129.424 29.4451 129.906 28.4642 130.002 27.4107L130.602 19.7307C130.648 19.2337 130.589 18.7324 130.429 18.2596C130.269 17.7867 130.012 17.3528 129.673 16.986C129.335 16.6192 128.923 16.3276 128.464 16.1303C128.006 15.933 127.511 15.8343 127.012 15.8407H79.7916Z" fill="#6257E2"/>
<g opacity="0.4">
<path opacity="0.4" d="M125.652 33.3107H78.4516C77.6949 33.3213 76.9445 33.1721 76.2494 32.8729C75.5543 32.5738 74.9302 32.1313 74.4177 31.5745C73.9052 31.0177 73.516 30.359 73.2754 29.6415C73.0349 28.924 72.9484 28.1639 73.0216 27.4107L73.6216 19.7307C73.7668 18.1375 74.4953 16.6541 75.6672 15.5652C76.8392 14.4763 78.372 13.8586 79.9716 13.8307H127.182C127.939 13.8203 128.689 13.9694 129.385 14.2685C130.08 14.5676 130.705 15.0098 131.218 15.5665C131.732 16.1231 132.122 16.7816 132.364 17.4991C132.605 18.2166 132.693 18.977 132.622 19.7307L132.022 27.4107C131.872 29.0056 131.139 30.4892 129.964 31.5777C128.789 32.6663 127.253 33.2833 125.652 33.3107V33.3107ZM79.7916 15.8407C78.7365 15.8585 77.7251 16.2655 76.9518 16.9835C76.1784 17.7014 75.6976 18.6798 75.6016 19.7307L75.0016 27.4107C74.9522 27.908 75.0085 28.4101 75.1666 28.8841C75.3247 29.3582 75.5811 29.7935 75.919 30.1616C76.2569 30.5298 76.6688 30.8224 77.1276 31.0204C77.5864 31.2184 78.0819 31.3173 78.5816 31.3107H125.802C126.859 31.2929 127.873 30.8848 128.648 30.165C129.424 29.4451 129.906 28.4642 130.002 27.4107L130.602 19.7307C130.648 19.2337 130.589 18.7324 130.429 18.2596C130.269 17.7867 130.012 17.3528 129.673 16.986C129.335 16.6192 128.923 16.3276 128.464 16.1303C128.006 15.933 127.511 15.8343 127.012 15.8407H79.7916Z" fill="white"/>
</g>
<path d="M123.212 18.2607H83.2116C83.0351 18.2643 82.8599 18.2306 82.6975 18.1616C82.535 18.0927 82.389 17.9901 82.2691 17.8607C82.1491 17.7313 82.0579 17.578 82.0014 17.4108C81.945 17.2436 81.9246 17.0663 81.9416 16.8907L82.2516 12.8907C82.2884 12.5192 82.4606 12.1743 82.7354 11.9216C83.0101 11.6689 83.3683 11.5262 83.7416 11.5207H123.742C123.918 11.5169 124.092 11.5506 124.254 11.6196C124.416 11.6886 124.562 11.7914 124.681 11.921C124.8 12.0506 124.891 12.2041 124.946 12.3713C125.001 12.5385 125.02 12.7156 125.002 12.8907L124.692 16.8907C124.657 17.2613 124.487 17.6061 124.214 17.859C123.941 18.1118 123.584 18.2549 123.212 18.2607Z" fill="#6257E2"/>
<path d="M157.082 55.9807H45.0816L46.0316 43.7607H158.032L157.082 55.9807Z" fill="#6257E2"/>
<path d="M111.752 72.9907H37.1915L37.4415 69.8407H112.002L111.752 72.9907Z" fill="#6257E2"/>
<path d="M111.052 82.0907H36.4916L36.7316 78.9307H111.292L111.052 82.0907Z" fill="#6257E2"/>
<path d="M110.342 91.1907H35.7816L36.0216 88.0307H110.582L110.342 91.1907Z" fill="#6257E2"/>
<path d="M109.632 100.281H35.0715L35.3115 97.1307H109.872L109.632 100.281Z" fill="#6257E2"/>
<path d="M158.552 100.281H128.132L130.512 69.8407H160.932L158.552 100.281Z" fill="#6257E2"/>
<path d="M150.132 81.1407C150.272 79.3607 148.892 78.1407 146.392 78.1407C145.421 78.0945 144.453 78.2684 143.559 78.6493C142.666 79.0303 141.87 79.6085 141.232 80.3407L139.312 78.8907C140.244 77.8502 141.396 77.0304 142.685 76.4907C143.973 75.951 145.366 75.7051 146.762 75.7707C150.762 75.7707 153.222 77.6407 152.972 80.7707C152.612 85.4207 147.662 85.7707 147.382 89.3807H144.592C144.942 84.9807 149.882 84.3407 150.132 81.1407ZM143.852 93.8707C143.888 93.372 144.117 92.907 144.49 92.5746C144.864 92.2421 145.352 92.0685 145.852 92.0907C146.082 92.0818 146.311 92.1229 146.523 92.2112C146.736 92.2995 146.927 92.4329 147.082 92.6021C147.238 92.7713 147.356 92.9724 147.426 93.1915C147.497 93.4105 147.519 93.6422 147.492 93.8707C147.454 94.3544 147.235 94.8062 146.88 95.136C146.524 95.4659 146.057 95.6496 145.572 95.6507C145.336 95.6682 145.099 95.6337 144.879 95.5495C144.658 95.4654 144.458 95.3337 144.294 95.1639C144.13 94.994 144.005 94.7901 143.929 94.5666C143.852 94.3431 143.826 94.1055 143.852 93.8707V93.8707Z" fill="white"/>
<path d="M108.162 119.061H33.6016L33.8516 115.901H108.412L108.162 119.061Z" fill="#6257E2"/>
<path d="M107.452 128.151H32.8916L33.1416 125.001H107.702L107.452 128.151Z" fill="#6257E2"/>
<path d="M106.752 137.251H32.1916L32.4316 134.101H106.992L106.752 137.251Z" fill="#6257E2"/>
<path d="M106.042 146.351H31.4816L31.7216 143.191H106.282L106.042 146.351Z" fill="#6257E2"/>
<path d="M154.962 146.351H124.542L126.912 115.901H157.332L154.962 146.351Z" fill="#6257E2"/>
<path d="M146.542 127.211C146.682 125.421 145.302 124.211 142.802 124.211C141.831 124.164 140.863 124.338 139.969 124.719C139.076 125.1 138.28 125.679 137.642 126.411L135.722 124.981C136.653 123.939 137.805 123.118 139.094 122.578C140.382 122.038 141.776 121.793 143.172 121.861C147.172 121.861 149.632 123.731 149.382 126.861C149.022 131.511 144.072 131.861 143.792 135.471H141.002C141.342 130.981 146.292 130.411 146.542 127.211ZM140.262 139.981C140.295 139.489 140.516 139.029 140.879 138.696C141.242 138.363 141.719 138.182 142.212 138.191C142.442 138.182 142.673 138.223 142.886 138.312C143.099 138.401 143.291 138.535 143.447 138.705C143.603 138.876 143.72 139.078 143.79 139.298C143.86 139.519 143.881 139.751 143.852 139.981C143.812 140.464 143.592 140.914 143.237 141.243C142.882 141.573 142.416 141.757 141.932 141.761C141.7 141.771 141.469 141.73 141.255 141.643C141.04 141.555 140.847 141.423 140.688 141.254C140.53 141.085 140.41 140.884 140.336 140.664C140.262 140.444 140.237 140.211 140.262 139.981V139.981Z" fill="white"/>
<path d="M104.572 165.121H30.0116L30.2616 161.971H104.822L104.572 165.121Z" fill="#6257E2"/>
<path d="M103.862 174.221H29.3016L29.5516 171.061H104.112L103.862 174.221Z" fill="#6257E2"/>
<path d="M103.152 183.321H28.6016L28.8416 180.161H103.402L103.152 183.321Z" fill="#6257E2"/>
<path d="M102.452 192.411H27.8916L28.1316 189.261H102.692L102.452 192.411Z" fill="#6257E2"/>
<path d="M151.372 192.411H120.952L123.322 161.971H153.742L151.372 192.411Z" fill="#6257E2"/>
<path d="M142.952 173.271C143.092 171.491 141.712 170.271 139.202 170.271C138.233 170.225 137.266 170.4 136.374 170.781C135.483 171.162 134.689 171.739 134.052 172.471L132.132 170.981C133.063 169.939 134.215 169.118 135.504 168.578C136.792 168.038 138.186 167.793 139.582 167.861C143.582 167.861 146.032 169.721 145.792 172.811C145.432 177.471 140.482 177.811 140.202 181.421H137.452C137.752 177.091 142.702 176.471 142.952 173.271ZM136.672 185.981C136.707 185.491 136.929 185.033 137.292 184.702C137.655 184.371 138.131 184.192 138.622 184.201C138.852 184.192 139.081 184.233 139.293 184.321C139.506 184.41 139.697 184.543 139.852 184.712C140.008 184.881 140.126 185.082 140.196 185.301C140.267 185.52 140.289 185.752 140.262 185.981C140.224 186.464 140.005 186.916 139.65 187.246C139.294 187.576 138.827 187.76 138.342 187.761C138.11 187.772 137.878 187.733 137.663 187.646C137.447 187.56 137.253 187.427 137.094 187.257C136.935 187.088 136.815 186.886 136.742 186.666C136.669 186.445 136.645 186.211 136.672 185.981V185.981Z" fill="white"/>
<path d="M100.982 211.191H26.4216L26.6716 208.031H101.232L100.982 211.191Z" fill="#6257E2"/>
<path d="M100.272 220.291H25.7115L25.9615 217.131H100.522L100.272 220.291Z" fill="#6257E2"/>
<path d="M99.5616 229.381H25.0016L25.2516 226.231H99.8116L99.5616 229.381Z" fill="#6257E2"/>
<path d="M98.8516 238.481H24.2916L24.5416 235.321H99.1016L98.8516 238.481Z" fill="#6257E2"/>
<path d="M147.782 238.481H117.362L119.732 208.031H150.152L147.782 238.481Z" fill="#6257E2"/>
<path d="M139.362 219.341C139.502 217.551 138.122 216.341 135.612 216.341C134.643 216.295 133.676 216.469 132.784 216.85C131.892 217.231 131.098 217.809 130.462 218.541L128.542 217.091C129.473 216.049 130.625 215.228 131.914 214.688C133.202 214.148 134.596 213.903 135.992 213.971C139.992 213.971 142.442 215.841 142.202 218.971C141.842 223.621 136.892 223.971 136.612 227.581H133.822C134.162 223.151 139.112 222.541 139.362 219.341ZM133.082 232.071C133.115 231.579 133.336 231.119 133.699 230.786C134.062 230.453 134.539 230.272 135.032 230.281C135.262 230.272 135.493 230.313 135.706 230.402C135.919 230.491 136.111 230.625 136.267 230.795C136.423 230.966 136.54 231.168 136.61 231.388C136.68 231.609 136.701 231.841 136.672 232.071C136.632 232.554 136.412 233.004 136.057 233.333C135.702 233.663 135.236 233.847 134.752 233.851C134.52 233.861 134.289 233.82 134.075 233.733C133.86 233.646 133.667 233.513 133.508 233.344C133.35 233.175 133.23 232.974 133.156 232.754C133.082 232.534 133.057 232.301 133.082 232.071V232.071Z" fill="white"/>
<path opacity="0.7" d="M157.082 55.9807H45.0816L46.0316 43.7607H158.032L157.082 55.9807Z" fill="white"/>
<path opacity="0.7" d="M111.752 72.9907H37.1915L37.4415 69.8407H112.002L111.752 72.9907Z" fill="white"/>
<path opacity="0.7" d="M111.052 82.0907H36.4916L36.7316 78.9307H111.292L111.052 82.0907Z" fill="white"/>
<path opacity="0.7" d="M110.342 91.1907H35.7816L36.0216 88.0307H110.582L110.342 91.1907Z" fill="white"/>
<path opacity="0.7" d="M109.632 100.281H35.0715L35.3115 97.1307H109.872L109.632 100.281Z" fill="white"/>
<path opacity="0.7" d="M158.552 100.281H128.132L130.512 69.8407H160.932L158.552 100.281Z" fill="white"/>
<path opacity="0.7" d="M108.162 119.061H33.6016L33.8516 115.901H108.412L108.162 119.061Z" fill="white"/>
<path opacity="0.7" d="M107.452 128.151H32.8916L33.1416 125.001H107.702L107.452 128.151Z" fill="white"/>
<path opacity="0.7" d="M106.752 137.251H32.1916L32.4316 134.101H106.992L106.752 137.251Z" fill="white"/>
<path opacity="0.7" d="M106.042 146.351H31.4816L31.7216 143.191H106.282L106.042 146.351Z" fill="white"/>
<path opacity="0.7" d="M154.962 146.351H124.542L126.912 115.901H157.332L154.962 146.351Z" fill="white"/>
<path opacity="0.7" d="M104.572 165.121H30.0116L30.2616 161.971H104.822L104.572 165.121Z" fill="white"/>
<path opacity="0.7" d="M103.862 174.221H29.3016L29.5516 171.061H104.112L103.862 174.221Z" fill="white"/>
<path opacity="0.7" d="M103.152 183.321H28.6016L28.8416 180.161H103.402L103.152 183.321Z" fill="white"/>
<path opacity="0.7" d="M102.452 192.411H27.8916L28.1316 189.261H102.692L102.452 192.411Z" fill="white"/>
<path opacity="0.7" d="M151.372 192.411H120.952L123.322 161.971H153.742L151.372 192.411Z" fill="white"/>
<path opacity="0.7" d="M100.982 211.191H26.4216L26.6716 208.031H101.232L100.982 211.191Z" fill="white"/>
<path opacity="0.7" d="M100.272 220.291H25.7115L25.9615 217.131H100.522L100.272 220.291Z" fill="white"/>
<path opacity="0.7" d="M99.5616 229.381H25.0016L25.2516 226.231H99.8116L99.5616 229.381Z" fill="white"/>
<path opacity="0.7" d="M98.8516 238.481H24.2916L24.5416 235.321H99.1016L98.8516 238.481Z" fill="white"/>
<path opacity="0.7" d="M147.782 238.481H117.362L119.732 208.031H150.152L147.782 238.481Z" fill="white"/>
</svg>
