<svg width="604" height="608" viewBox="0 0 604 608" fill="none" xmlns="http://www.w3.org/2000/svg">
<g clip-path="url(#clip0_82_249)">
<rect width="604" height="608" rx="16" fill="#6257E3"/>
<g filter="url(#filter0_f_82_249)">
<path d="M396.949 182.592C427.416 201.821 458.25 220.334 469.363 246.882C480.548 273.358 472.085 307.871 469.436 344.895C466.787 381.991 469.951 421.598 450.891 441.545C431.758 461.564 390.4 461.851 355.886 460.559C321.372 459.339 293.702 456.613 267.798 448.864C241.82 441.114 217.609 428.414 197.739 409.83C177.87 391.318 162.269 366.995 148.654 336.643C135.04 306.292 123.266 269.914 137.395 247.312C151.524 224.71 191.631 215.885 224.085 197.588C256.538 179.291 281.412 151.523 308.935 147.505C336.384 143.559 366.483 163.434 396.949 182.592Z" fill="#362AC7"/>
</g>
<path d="M388.302 192.645C416.289 210.282 444.614 227.261 454.821 251.611C465.097 275.895 457.323 307.55 454.889 341.509C452.455 375.533 455.362 411.86 437.854 430.156C420.277 448.517 382.286 448.78 350.581 447.596C318.876 446.477 293.458 443.976 269.663 436.868C245.8 429.761 223.559 418.112 205.307 401.067C187.055 384.088 172.724 361.778 160.217 333.94C147.711 306.103 136.895 272.737 149.875 252.006C162.854 231.276 199.696 223.181 229.508 206.399C259.32 189.618 282.169 164.149 307.452 160.463C332.667 156.844 360.316 175.073 388.302 192.645Z" fill="white"/>
<path fill-rule="evenodd" clip-rule="evenodd" d="M338.47 257.222C332.758 260.061 326.531 263.074 320.132 265.033C313.381 267.099 306.423 266.263 299.739 264.562C296.389 263.71 293.051 262.624 289.803 261.539C289.334 261.383 288.868 261.226 288.403 261.071C285.627 260.141 282.927 259.236 280.273 258.471C274.041 256.676 268.458 255.781 263.525 257.079C258.73 258.341 254.179 261.783 250.231 269.528C246.514 276.817 243.542 281.511 241.402 284.89C241.128 285.323 240.868 285.735 240.621 286.127C238.407 289.65 237.57 291.298 237.505 293.3C237.434 295.448 238.244 298.225 240.415 303.946C240.927 305.295 241.508 306.795 242.159 308.469C243.259 307.756 244.435 307.247 245.692 306.926C249.802 305.877 254.301 307.004 258.669 308.359C259.204 308.525 259.741 308.695 260.281 308.868C260.336 308.772 260.391 308.677 260.447 308.582C259.843 304.62 259.508 300.706 259.516 296.945C259.549 283.419 264.1 271.206 277.411 266.635C290.462 262.154 301.221 267.488 310.697 273.409C312.065 274.263 313.396 275.123 314.703 275.971C316.409 275.733 318.103 275.561 319.779 275.448C324.352 270.284 329.857 266.523 337.483 266.523C343.125 266.523 347.458 267.05 351.08 268.197C354.74 269.356 357.571 271.114 360.248 273.425C362.645 275.494 364.955 278.044 367.593 280.958C367.842 281.233 368.094 281.511 368.35 281.793C369.893 283.494 371.581 285.34 373.51 287.338C372.724 277.492 371.661 269.133 370.667 263.409C369.315 255.624 366.998 251.916 364.456 250.31C361.952 248.728 358.58 248.78 353.998 250.24C349.81 251.575 345.1 253.921 339.872 256.525C339.409 256.756 338.941 256.988 338.47 257.222ZM377.991 291.803C377.18 279.741 375.919 269.447 374.747 262.703C373.337 254.579 370.732 249.382 366.67 246.816C362.569 244.225 357.653 244.736 352.738 246.302C348.228 247.739 343.226 250.232 338.089 252.792C337.602 253.035 337.114 253.278 336.625 253.521C330.898 256.367 324.951 259.234 318.918 261.08C313.237 262.818 307.159 262.184 300.762 260.556C297.572 259.744 294.36 258.701 291.117 257.618C290.657 257.465 290.196 257.31 289.734 257.156C286.963 256.227 284.168 255.29 281.421 254.499C275.049 252.663 268.544 251.482 262.47 253.081C256.258 254.716 250.879 259.141 246.54 267.652C242.913 274.765 240.032 279.316 237.901 282.683C237.626 283.117 237.363 283.532 237.113 283.93C234.966 287.346 233.473 289.892 233.365 293.165C233.263 296.291 234.439 299.868 236.542 305.41C237.147 307.004 237.838 308.782 238.619 310.79C238.707 311.017 238.797 311.248 238.888 311.482C237.595 313.091 236.442 315.12 235.419 317.608C230.224 330.244 233.849 344.296 241.987 356.787C250.144 369.306 263.029 380.602 277.119 388.01C280.783 389.937 284.649 390.824 288.609 390.889C298.433 400.495 314.18 409 337.483 409C350.571 409 359.749 401.337 365.979 389.915C370.347 381.906 373.349 371.924 375.349 361.088C375.647 360.692 375.942 360.289 376.232 359.881C380.687 353.603 384.235 345.765 386.448 337.61C388.66 329.458 389.564 320.887 388.642 313.135C387.72 305.393 384.951 298.297 379.644 293.362C379.076 292.834 378.526 292.314 377.991 291.803ZM373.962 293.663C370.459 290.241 367.674 287.208 365.28 284.568C365.037 284.301 364.799 284.038 364.565 283.779C361.869 280.804 359.733 278.446 357.539 276.552C355.208 274.54 352.86 273.098 349.828 272.138C346.76 271.167 342.891 270.657 337.483 270.657C332.819 270.657 329.095 272.388 325.767 275.296C331.781 275.396 337.428 276.256 342.37 277.67C347.998 279.281 352.82 281.641 356.236 284.519C359.633 287.381 361.874 290.978 361.652 294.989C361.593 296.055 361.184 297.234 360.631 298.411C363.561 302.713 365.415 307.842 365.797 313.34C366.873 314.134 367.876 314.924 368.794 315.705C371.366 317.892 373.412 320.117 374.543 322.278C374.585 322.36 374.627 322.442 374.668 322.524C374.834 312.468 374.527 302.605 373.962 293.663ZM374.073 337.08C373.949 337.396 373.819 337.713 373.685 338.029C371.254 343.739 366.994 349.861 361.614 355.602C355.787 361.82 348.528 367.715 340.637 372.207C348.206 371.565 354.603 370.356 358.965 368.991C363.346 367.62 367.632 364.224 371.452 359.366C372.181 355.274 372.771 351.034 373.238 346.705C373.581 343.529 373.857 340.313 374.073 337.08ZM376.935 350.763C377.085 349.563 377.225 348.358 377.356 347.148C379.129 330.723 379.141 313.274 378.358 297.986C381.777 301.96 383.786 307.376 384.529 313.622C385.377 320.742 384.555 328.772 382.45 336.529C381.092 341.536 379.21 346.386 376.935 350.763ZM369.845 367.171C366.884 369.841 363.648 371.858 360.204 372.936C353.686 374.976 343.16 376.644 331.019 376.814C327.338 378.244 323.594 379.312 319.859 379.921C318.884 380.08 317.929 380.213 316.995 380.321C311.914 383.803 306.701 386.664 301.525 388.526C299.106 389.397 296.679 390.054 294.267 390.453C303.494 398.295 317.474 404.866 337.483 404.866C348.567 404.866 356.57 398.521 362.341 387.938C365.536 382.08 367.994 375.001 369.845 367.171ZM290.309 386.729C293.456 386.579 296.739 385.854 300.121 384.637C302.967 383.612 305.857 382.248 308.754 380.608C305.709 380.438 302.908 379.938 300.316 379.13C294.829 377.419 290.412 374.369 286.68 370.387C286.435 370.125 286.192 369.858 285.952 369.588C284.238 368.935 282.544 368.231 280.875 367.473C277.706 368.33 274.707 368.645 272.024 368.19C267.91 367.493 264.759 365.02 263.035 360.654C262.096 358.276 261.233 355.942 260.452 353.653C254.515 347.75 249.655 340.47 246.437 331.544C244.234 325.435 242.328 320.392 240.702 316.167C240.207 317.034 239.722 318.031 239.25 319.178C234.776 330.061 237.711 342.64 245.459 354.532C253.188 366.396 265.513 377.235 279.049 384.352C280.76 385.252 282.542 385.887 284.386 386.278C280.032 380.955 277.359 375.653 276.105 371.57C275.769 370.478 276.384 369.322 277.477 368.987C278.571 368.652 279.729 369.266 280.064 370.357C281.396 374.693 284.647 380.83 290.309 386.729ZM243.707 312.454C245.515 317.124 247.724 322.906 250.334 330.144C252.195 335.306 254.652 339.889 257.586 343.947C255.56 335.652 254.902 328.027 256.01 321.094C256.485 318.121 257.281 315.295 258.416 312.615C258.087 312.509 257.762 312.406 257.44 312.307C253.002 310.93 249.558 310.207 246.718 310.932C245.705 311.19 244.696 311.657 243.707 312.454ZM261.744 315.45C260.99 317.467 260.448 319.565 260.1 321.745C258.757 330.151 260.261 339.982 264.057 351.384C269.036 356.176 274.814 359.993 281.053 362.995C276.835 356.34 273.42 348.315 269.847 339.922C269.656 339.472 269.464 339.022 269.272 338.57C266.258 331.497 263.541 323.5 261.744 315.45ZM274.567 364.264C271.925 362.764 269.373 361.104 266.941 359.269C268.157 362.249 270.123 363.675 272.717 364.114C273.295 364.212 273.912 364.262 274.567 364.264ZM288.399 366.092C288.108 365.747 287.822 365.395 287.54 365.037C290.853 363.552 294.36 361.626 297.97 359.369C297.981 359.376 297.993 359.383 298.005 359.39C301.731 361.581 306.645 362.499 312.801 361.955C320.779 361.25 327.632 361.028 333.331 360.993C330.178 364.183 326.865 367.283 323.454 370.165C322.531 370.944 321.603 371.707 320.67 372.449C314.855 372.104 308.834 371.375 302.847 370.149C297.942 369.144 293.085 367.811 288.399 366.092ZM296.268 372.866C297.902 373.815 299.655 374.592 301.551 375.183C305.433 376.394 310.003 376.85 315.502 376.322C315.555 376.285 315.607 376.248 315.66 376.211C311.156 375.789 306.574 375.133 302.015 374.199C300.096 373.806 298.178 373.363 296.268 372.866ZM326.884 372.679C328.003 372.695 329.111 372.698 330.205 372.689C336.997 369.955 343.62 365.889 349.526 361.154C349.285 361.158 349.036 361.16 348.782 361.161C347.359 361.166 345.639 361.132 343.666 361.093C342.658 361.073 341.584 361.051 340.45 361.033C339.999 361.026 339.537 361.02 339.064 361.014C335.238 365.063 331.139 369.03 326.884 372.679ZM342.8 356.94C343.148 356.947 343.488 356.954 343.819 356.961C345.754 356.999 347.391 357.032 348.766 357.026C349.605 357.023 350.31 357.006 350.895 356.97C350.391 356.472 349.697 355.841 348.766 355.049C348.028 354.422 347.189 353.73 346.244 352.964C345.131 354.285 343.982 355.613 342.8 356.94ZM348.875 349.773C349.847 350.56 350.707 351.268 351.453 351.903C353.275 353.454 354.722 354.809 355.433 355.964C355.434 355.966 355.434 355.967 355.435 355.968C356.526 354.921 357.58 353.855 358.59 352.777C363.744 347.277 367.685 341.554 369.873 336.412C372.095 331.192 372.341 327.001 370.871 324.192C370.103 322.722 368.523 320.905 366.109 318.852C365.98 318.743 365.85 318.634 365.718 318.524C365.283 322.905 363.9 327.421 361.387 331.861C358.641 336.715 354.29 343.055 348.875 349.773ZM361.736 315.522C361.723 320.13 360.509 325.006 357.781 329.828C355.144 334.489 350.919 340.643 345.644 347.185C345.002 346.674 344.327 346.138 343.621 345.578C340.37 342.997 336.449 339.884 331.887 336.161C331.121 335.536 330.364 334.918 329.615 334.306C336.344 328.024 342.58 321.624 347.71 315.84C349.506 313.815 351.173 311.859 352.681 310.004C354.203 310.832 355.662 311.666 357.047 312.5C358.731 313.515 360.299 314.526 361.736 315.522ZM361.21 310.212C360.647 307.444 359.647 304.836 358.291 302.473C358.042 302.853 357.78 303.241 357.507 303.637C356.836 304.608 356.09 305.635 355.275 306.709C356.63 307.455 357.936 308.207 359.186 308.96C359.877 309.377 360.553 309.794 361.21 310.212ZM351.568 304.743C352.509 303.519 353.355 302.364 354.097 301.29C354.722 300.385 355.265 299.548 355.725 298.784C351.257 293.429 344.705 290.025 337.483 290.025C332.154 290.025 327.18 288.119 322.464 285.585C321.245 284.93 320.021 284.22 318.797 283.477C317.729 285.005 316.66 286.627 315.567 288.319C315.169 288.936 314.768 289.561 314.364 290.191C314.157 290.514 313.949 290.838 313.74 291.163C319.92 292.47 326.222 294.308 332.307 296.473C339.122 298.897 345.7 301.745 351.568 304.743ZM309.35 290.323C309.914 289.454 310.476 288.581 311.037 287.708C311.387 287.165 311.736 286.621 312.086 286.079C313.129 284.465 314.185 282.848 315.279 281.272C314.773 280.947 314.267 280.62 313.762 280.293C310.176 280.875 306.541 281.761 302.929 282.996C297.26 284.935 293.969 287.026 292.286 289.127C295.459 288.953 298.787 289.052 302.191 289.369C304.531 289.587 306.924 289.909 309.35 290.323ZM290.801 293.379C294.176 293.072 297.874 293.12 301.807 293.485C303.454 293.639 305.132 293.847 306.834 294.105C303.975 298.274 300.924 302.193 297.288 305.378C295.797 303.654 294.546 302.028 293.549 300.494C291.693 297.639 290.85 295.319 290.801 293.379ZM287.271 289.659C287.373 289.383 287.487 289.108 287.615 288.835C289.58 284.63 294.407 281.54 301.587 279.085C303.966 278.272 306.354 277.6 308.734 277.06C308.656 277.011 308.578 276.962 308.5 276.914C299.155 271.075 289.881 266.726 278.758 270.545C267.895 274.275 263.688 284.196 263.658 296.955C263.653 299.117 263.769 301.34 263.992 303.603C267.303 299.692 271.629 296.186 277.055 293.082C280.03 291.379 283.49 290.276 287.271 289.659ZM264.781 309.449C267.918 304.654 272.595 300.4 279.114 296.668C281.279 295.43 283.824 294.539 286.679 293.968C286.878 296.824 288.145 299.776 290.075 302.744C291.152 304.402 292.474 306.127 294.015 307.92C292.274 309.105 290.402 310.125 288.365 310.941C279.927 314.319 272.213 312.612 264.94 310.36C264.886 310.056 264.833 309.752 264.781 309.449ZM265.881 314.972C267.606 322.558 270.186 330.152 273.083 336.952C273.217 337.266 273.35 337.578 273.482 337.889C277.358 346.989 280.828 355.137 285.076 361.602C288.045 360.326 291.223 358.639 294.535 356.628C292.735 354.713 291.487 352.399 290.714 349.848C288.743 343.337 289.829 335.205 292.581 327.506C287.256 326.904 282.133 326.104 277.699 325.266C276.576 325.054 275.837 323.972 276.05 322.851C276.263 321.729 277.346 320.992 278.47 321.204C283.17 322.092 288.597 322.924 294.168 323.521C294.22 323.404 294.272 323.287 294.324 323.171C295.787 319.898 297.553 316.708 299.54 313.776C298.585 312.836 297.675 311.913 296.813 311.006C294.71 312.49 292.421 313.771 289.906 314.778C281.121 318.295 272.926 316.983 265.881 314.972ZM300.074 308.428C304.544 304.5 308.118 299.68 311.312 294.887C317.763 296.157 324.441 298.063 330.917 300.367C337.288 302.634 343.431 305.274 348.936 308.046C347.614 309.652 346.166 311.344 344.609 313.099C339.463 318.901 333.171 325.348 326.384 331.66C324.756 330.324 323.17 329.017 321.629 327.74C324.129 327.332 326.441 326.752 328.452 325.953C330.891 324.984 333.025 323.636 334.453 321.742C337.524 317.67 336.579 312.322 332.276 306.145C329.445 302.082 326.036 299.772 322.253 299.173C318.515 298.582 314.773 299.719 311.344 301.811C308.033 303.831 304.86 306.831 302.015 310.404C301.339 309.732 300.692 309.074 300.074 308.428ZM302.575 316.683C301.085 318.946 299.718 321.39 298.527 323.936C302.867 324.294 307.204 324.485 311.268 324.424C309.067 322.535 306.988 320.712 305.044 318.952C304.197 318.186 303.374 317.429 302.575 316.683ZM317.296 324.119C313.86 321.222 310.691 318.483 307.826 315.889C306.848 315.004 305.908 314.139 305.008 313.292C307.661 309.901 310.574 307.127 313.504 305.339C316.399 303.573 319.143 302.867 321.605 303.257C324.021 303.639 326.527 305.134 328.876 308.506C332.861 314.227 332.549 317.393 331.145 319.255C330.335 320.328 328.955 321.303 326.92 322.112C324.898 322.916 322.364 323.501 319.43 323.883C318.736 323.973 318.024 324.052 317.296 324.119ZM315.929 328.374C310.039 328.77 303.383 328.531 296.833 327.939C293.982 335.469 292.984 343.054 294.679 348.652C295.368 350.929 296.494 352.858 298.121 354.359C303.611 350.753 309.375 346.383 315.09 341.621C317.863 339.311 320.613 336.917 323.304 334.485C320.742 332.38 318.279 330.344 315.929 328.374ZM326.54 337.136C327.438 337.87 328.346 338.612 329.265 339.362C333.964 343.196 337.898 346.318 341.124 348.878C341.783 349.4 342.412 349.9 343.012 350.377C341.197 352.529 339.281 354.703 337.282 356.861C330.817 356.814 322.508 356.947 312.436 357.837C308.017 358.227 304.604 357.76 302.002 356.743C307.193 353.232 312.524 349.145 317.744 344.795C320.716 342.319 323.664 339.747 326.54 337.136ZM321.265 280.138C322.317 280.77 323.368 281.375 324.427 281.944C328.883 284.338 333.145 285.891 337.483 285.891C345.338 285.891 352.405 289.235 357.524 294.575C357.571 292.41 356.348 290.024 353.565 287.679C350.722 285.283 346.479 283.147 341.229 281.644C335.585 280.029 328.903 279.183 321.794 279.479C321.617 279.695 321.441 279.915 321.265 280.138ZM351.954 358.222C351.953 358.222 351.948 358.211 351.94 358.192C351.951 358.212 351.955 358.222 351.954 358.222ZM352.503 356.737C352.511 356.733 352.515 356.731 352.515 356.731C352.515 356.731 352.511 356.733 352.503 356.737Z" fill="#1B1B1B"/>
</g>
<defs>
<filter id="filter0_f_82_249" x="-189" y="-173" width="984" height="954" filterUnits="userSpaceOnUse" color-interpolation-filters="sRGB">
<feFlood flood-opacity="0" result="BackgroundImageFix"/>
<feBlend mode="normal" in="SourceGraphic" in2="BackgroundImageFix" result="shape"/>
<feGaussianBlur stdDeviation="160" result="effect1_foregroundBlur_82_249"/>
</filter>
<clipPath id="clip0_82_249">
<rect width="604" height="608" rx="16" fill="white"/>
</clipPath>
</defs>
</svg>
